<?xml version="1.0" encoding="UTF-8"?>
<svg width="178px" height="171px" viewBox="0 0 178 171" version="1.1" xmlns="http://www.w3.org/2000/svg" xmlns:xlink="http://www.w3.org/1999/xlink">
    <!-- Generator: Sketch 46 (44423) - http://www.bohemiancoding.com/sketch -->
    <title>Group 8</title>
    <desc>Created with Sketch.</desc>
    <defs></defs>
    <g id="Web-design" stroke="none" stroke-width="1" fill="none" fill-rule="evenodd">
        <g id="SC-Copy-46" transform="translate(-1513.000000, -7488.000000)">
            <g id="7.-Our-clients" transform="translate(205.000000, 7304.000000)">
                <g id="Group-39" transform="translate(1080.000000, 0.000000)">
                    <g id="Group-8" transform="translate(229.000000, 184.000000)">
                        <polyline id="Path-2" stroke="#FFFFFF" stroke-width="2.29999995" points="53.6968522 135.8733 44.0743591 126.137936 44.0743591 117.399642 0.661449131 73.6726752 0.661449131 18.5681372 63.2922971 81.1439099 80.7952789 81.1439099 90.7115 91.1325594 102.664095 79.3968969 117.291441 79.3968969 175.538318 21.4558198 175.538318 73.6726752 143.428678 105.865077 143.428678 117.399642 125.849935 135.14278"></polyline>
                        <path d="M101.057155,109.941812 L97.0940481,105.900559" id="Path-4" stroke="#FFFFFF" stroke-width="2.29999995"></path>
                        <rect id="Rectangle-6" stroke="#FFFFFF" stroke-width="2.29999995" transform="translate(62.117647, 135.307563) rotate(-45.000000) translate(-62.117647, -135.307563) " x="52.3973493" y="129.432975" width="19.4405955" height="11.7491752" rx="5.87458762"></rect>
                        <rect id="Rectangle-6-Copy" stroke="#FFFFFF" stroke-width="2.29999995" transform="translate(70.169935, 143.700361) rotate(-45.000000) translate(-70.169935, -143.700361) " x="60.4496369" y="137.825774" width="19.4405955" height="11.7491752" rx="5.87458762"></rect>
                        <rect id="Rectangle-6-Copy-2" stroke="#FFFFFF" stroke-width="2.29999995" transform="translate(78.797386, 152.097803) rotate(-45.000000) translate(-78.797386, -152.097803) " x="69.0770879" y="146.223215" width="19.4405955" height="11.7491752" rx="5.87458762"></rect>
                        <path d="M87.3245485,134.892091 L117.442196,134.892091 L117.442196,134.892091 C121.138533,134.892091 124.135006,137.506802 124.135006,140.732212 L124.135006,141.218888 L124.135006,141.218888 C124.135006,144.713082 120.888827,147.545686 116.884461,147.545686 L87.3245485,147.545686" id="Rectangle-7" stroke="#FFFFFF" stroke-width="2.29999995" transform="translate(105.729777, 141.218888) rotate(45.000000) translate(-105.729777, -141.218888) "></path>
                        <path d="M78.1219342,143.634617 L108.239581,143.634617 C111.935918,143.634617 114.932392,146.249328 114.932392,149.474737 L114.932392,149.961414 C114.932392,153.455608 111.686212,156.288211 107.681847,156.288211 C105.098853,156.288211 103.161607,156.288211 101.87011,156.288211" id="Rectangle-7-Copy-2" stroke="#FFFFFF" stroke-width="2.29999995" transform="translate(96.527163, 149.961414) rotate(45.000000) translate(-96.527163, -149.961414) "></path>
                        <rect id="Rectangle-6-Copy-3" stroke="#FFFFFF" stroke-width="2.29999995" transform="translate(87.194757, 160.610179) rotate(-45.000000) translate(-87.194757, -160.610179) " x="77.4744594" y="154.735592" width="19.4405955" height="11.7491752" rx="5.87458762"></rect>
                        <path d="M98.8612682,125.919556 L126.414731,125.919556 C130.111068,125.919556 133.107541,128.534267 133.107541,131.759677 L133.107541,132.246353 C133.107541,135.740547 129.861362,138.573151 125.856996,138.573151 L96.2970835,138.573151" id="Rectangle-7-Copy" stroke="#FFFFFF" stroke-width="2.29999995" transform="translate(114.702312, 132.246353) rotate(45.000000) translate(-114.702312, -132.246353) "></path>
                        <path d="M88,65.2375345 C106.01483,52.3189344 124.130178,40.4946418 124.130178,20.5404955 C124.130178,0.586349135 97.7816603,-7.13721932 88,9.54435433 C77.434572,-7.1687072 51.869822,0.586349135 51.869822,20.5404955 C51.869822,40.4946418 69.8425338,52.3189344 88,65.2375345 Z" id="Oval-7-Copy" fill="#FFFFFF"></path>
                        <path d="M71.8832427,42.2184495 C61.9854025,34.0529124 58.6502214,26.9435914 59.0285405,21" id="Path-5" stroke="#938EFB" stroke-width="2.3" transform="translate(65.441621, 31.609225) rotate(2.000000) translate(-65.441621, -31.609225) "></path>
                        <path d="M90.3006536,91.751634 L73.9222374,108.13005 L73.9222374,108.13005 C70.329414,111.722874 70.329414,117.547991 73.9222374,121.140815 C73.9627667,121.181344 74.0036739,121.221494 74.0449535,121.261258 L83.8020709,130.660301 L83.8020709,130.660301 C86.9586087,133.700998 91.9676648,133.657687 95.0711519,130.562863 L95.2252238,130.409222 L95.2252238,130.409222 C98.3644444,127.278764 98.3816914,122.199338 95.2638017,119.047635 L89.4843615,113.205516 L104.292538,98.2723009" id="Line-5" stroke="#FFFFFF" stroke-width="2.29999995" stroke-linecap="square"></path>
                    </g>
                </g>
            </g>
        </g>
    </g>
</svg>